<svg id="Layer_1" data-name="Layer 1" xmlns="http://www.w3.org/2000/svg" xmlns:xlink="http://www.w3.org/1999/xlink" viewBox="0 0 255.38 40"><defs><style>.cls-1{fill:none;}.cls-2{fill:#3a9a64;}.cls-3{clip-path:url(#clip-path);}.cls-4{fill:#37d33f;}.cls-5{fill:#333;stroke:#3a9a64;stroke-miterlimit:10;}</style><clipPath id="clip-path" transform="translate(3)"><path class="cls-1" d="M34.5,0H33.31c0,0.51,0,1,0,1.58,0,10.29-.45,24.33,5.12,35.07,0.25,0.49.51,1,.8,1.45a6.83,6.83,0,0,0,2.13-5V6.85A6.85,6.85,0,0,0,34.5,0ZM2.93,29c-0.52,0-1-.09-1.58-0.11v4.22A6.85,6.85,0,0,0,8.21,40H34.5l-2.93-1.58C23.82,34.26,15.13,29.92,2.93,29ZM29.18,1.58L30.43,0H8.21A6.85,6.85,0,0,0,1.35,6.85V24.24c0.51-.17,1-0.38,1.58-0.6C9.32,21,18.42,15.08,29.18,1.58Z"/></clipPath></defs><title>vendasta-blog-logo</title><path d="M49.54,5.77H54l8.37,23.17h0.08L71.14,5.77h4.22L64.14,34.25H60.52Z" transform="translate(3)"/><path d="M78,5.77H96.36V9.39H81.84v8.49H95.35V21.5H81.84v9.13H97.08v3.62H78V5.77Z" transform="translate(3)"/><path d="M100.95,5.77H106L121.7,29.19h0.08V5.77h3.86V34.25h-4.91L104.89,10.84h-0.08V34.25h-3.86V5.77Z" transform="translate(3)"/><path d="M130.71,5.77h9.94a18.44,18.44,0,0,1,5.29.68,14.06,14.06,0,0,1,3.94,1.83,11.62,11.62,0,0,1,2.78,2.63A14.1,14.1,0,0,1,154.41,14a15.47,15.47,0,0,1,.93,3.14,16.57,16.57,0,0,1,.28,2.9,14.34,14.34,0,0,1-1,5.29,13.39,13.39,0,0,1-3,4.55,14.66,14.66,0,0,1-4.89,3.2A17.53,17.53,0,0,1,140,34.25h-9.29V5.77Zm3.86,24.86h4.87a16,16,0,0,0,4.65-.66,11.26,11.26,0,0,0,3.84-2,9.5,9.5,0,0,0,2.62-3.32,10.54,10.54,0,0,0,1-4.65,14,14,0,0,0-.44-3.2,9.63,9.63,0,0,0-1.67-3.48,9.92,9.92,0,0,0-3.4-2.8,12,12,0,0,0-5.63-1.15h-5.79V30.63Z" transform="translate(3)"/><path d="M171.63,6.06l-0.15-.35h-3.39l-0.15.34L156,33.48l-0.35.81h3.93l0.15-.35,3-6.93h13.76l2.84,6.93,0.14,0.36h4.12l-0.34-.8Zm-7.49,17.47,5.51-13,5.35,13H164.14Z" transform="translate(3)"/><path d="M200.13,19.92a17.18,17.18,0,0,0-3.53-1.34,27.49,27.49,0,0,1-3.34-1.1,6.83,6.83,0,0,1-2.41-1.61A3.89,3.89,0,0,1,190,13.1a4.34,4.34,0,0,1,.44-2,4.22,4.22,0,0,1,1.18-1.42,5.39,5.39,0,0,1,1.77-.87,7.83,7.83,0,0,1,2.2-.31,6,6,0,0,1,2.82.61A6,6,0,0,1,200.42,11l0.34,0.47,0.47-.34,2.21-1.59,0.48-.34-0.35-.47A8.5,8.5,0,0,0,200,5.85,11.4,11.4,0,0,0,195.62,5a12,12,0,0,0-3.5.51,9.23,9.23,0,0,0-3,1.53A7.51,7.51,0,0,0,187,9.61a7.63,7.63,0,0,0-.78,3.5,8.43,8.43,0,0,0,.65,3.49A6.91,6.91,0,0,0,188.66,19a9.27,9.27,0,0,0,2.41,1.51c0.85,0.37,1.74.7,2.65,1l2.59,0.85a11.44,11.44,0,0,1,2.16,1,4.26,4.26,0,0,1,1.42,1.35,3.74,3.74,0,0,1,.51,2.05,4.47,4.47,0,0,1-.43,2,4.57,4.57,0,0,1-1.17,1.5,5.55,5.55,0,0,1-1.77,1,6.78,6.78,0,0,1-2.22.36,7.18,7.18,0,0,1-3.39-.79A6,6,0,0,1,189,28.35l-0.31-.53-0.51.34-2.44,1.63-0.5.33,0.35,0.48A9.75,9.75,0,0,0,189.78,34,13.56,13.56,0,0,0,195,35a11,11,0,0,0,3.39-.53,8.72,8.72,0,0,0,2.92-1.6,7.83,7.83,0,0,0,2-2.61,8,8,0,0,0,.76-3.54,7.33,7.33,0,0,0-1.16-4.35A8,8,0,0,0,200.13,19.92Z" transform="translate(3)"/><polygon points="230.92 9.19 230.92 8.61 230.92 6.29 230.92 5.71 230.35 5.71 209.04 5.71 208.46 5.71 208.46 6.29 208.46 8.61 208.46 9.19 209.04 9.19 217.84 9.19 217.84 33.72 217.84 34.29 218.41 34.29 220.97 34.29 221.54 34.29 221.54 33.72 221.54 9.19 230.35 9.19 230.92 9.19"/><path d="M252,33.49L240.51,6.06l-0.15-.35H237l-0.15.34-12,27.43-0.35.81h3.93l0.15-.35,3-6.93h13.76l2.84,6.93,0.15,0.36h4.12Zm-19-10,5.52-13,5.35,13H233Z" transform="translate(3)"/><path class="cls-2" d="M34.5,0H33.31c0,0.51,0,1,0,1.58,0,10.29-.45,24.33,5.12,35.07,0.25,0.49.51,1,.8,1.45a6.83,6.83,0,0,0,2.13-5V6.85A6.85,6.85,0,0,0,34.5,0Z" transform="translate(3)"/><path class="cls-2" d="M31.57,38.42C23.82,34.26,15.13,29.92,2.93,29c-0.52,0-1-.09-1.58-0.11v4.22A6.85,6.85,0,0,0,8.21,40H34.5Z" transform="translate(3)"/><path class="cls-2" d="M8.21,0A6.85,6.85,0,0,0,1.35,6.85V24.24c0.51-.17,1-0.38,1.58-0.6C9.32,21,18.42,15.08,29.18,1.58L30.43,0H8.21Z" transform="translate(3)"/><path class="cls-2" d="M8.21,0A6.85,6.85,0,0,0,1.35,6.85V24.24c0.51-.17,1-0.38,1.58-0.6C9.32,21,18.42,15.08,29.18,1.58L30.43,0H8.21Z" transform="translate(3)"/><g class="cls-3"><polygon class="cls-4" points="41.07 17.27 16.96 17.27 12.77 10.27 8.12 10.27 8.12 9.45 13.23 9.45 17.42 16.46 41.07 16.46 41.07 17.27"/><polygon class="cls-4" points="41.07 13.21 19.81 13.21 15.61 6.2 8.12 6.2 8.12 5.39 16.07 5.39 20.27 12.4 41.07 12.4 41.07 13.21"/><polygon class="cls-4" points="41.07 9.15 22.24 9.15 18.05 2.14 0 2.14 0 1.33 18.51 1.33 22.7 8.34 41.07 8.34 41.07 9.15"/><polygon class="cls-4" points="41.07 21.34 14.93 21.34 10.74 14.33 8.12 14.33 8.12 13.52 11.2 13.52 15.39 20.52 41.07 20.52 41.07 21.34"/><path class="cls-4" d="M28.65,20.18" transform="translate(3)"/><rect class="cls-4" x="31.65" y="24.46" width="9.42" height="0.81"/><polygon class="cls-4" points="11.47 36.92 7.72 32.63 7.72 17.98 8.53 17.98 8.53 32.32 12.09 36.38 11.47 36.92"/><polygon class="cls-4" points="20.93 35.46 20.11 35.46 20.11 27.05 16.66 26.24 16.66 35.97 15.84 35.97 15.84 25.21 20.93 26.4 20.93 35.46"/><circle class="cls-2" cx="8.12" cy="5.8" r="1.11"/><circle class="cls-2" cx="8.12" cy="9.86" r="1.11"/><circle class="cls-2" cx="8.12" cy="17.98" r="1.11"/><circle class="cls-2" cx="8.12" cy="13.92" r="1.11"/><circle class="cls-2" cx="41.07" cy="12.81" r="1.11"/><circle class="cls-2" cx="41.07" cy="8.74" r="1.11"/><circle class="cls-2" cx="41.07" cy="16.87" r="1.11"/><circle class="cls-2" cx="41.07" cy="20.93" r="1.11"/><circle class="cls-2" cx="41.07" cy="24.86" r="1.11"/><circle class="cls-2" cx="11.78" cy="36.27" r="1.11"/><circle class="cls-2" cx="16.25" cy="36.27" r="1.11"/><circle class="cls-2" cx="20.31" cy="36.27" r="1.11"/><circle class="cls-2" cx="24.37" cy="36.27" r="1.11"/><path class="cls-5" d="M38.48,20.18" transform="translate(3)"/><path class="cls-4" d="M5.12,7.32A1.52,1.52,0,1,1,6.64,5.8,1.52,1.52,0,0,1,5.12,7.32Zm0-2.23a0.71,0.71,0,1,0,.71.71A0.71,0.71,0,0,0,5.12,5.09Z" transform="translate(3)"/><path class="cls-4" d="M5.12,11.38A1.52,1.52,0,1,1,6.64,9.86,1.52,1.52,0,0,1,5.12,11.38Zm0-2.23a0.71,0.71,0,1,0,.71.71A0.71,0.71,0,0,0,5.12,9.15Z" transform="translate(3)"/><path class="cls-4" d="M5.12,19.5A1.52,1.52,0,1,1,6.64,18,1.52,1.52,0,0,1,5.12,19.5Zm0-2.23a0.71,0.71,0,1,0,.71.71A0.71,0.71,0,0,0,5.12,17.28Z" transform="translate(3)"/><path class="cls-4" d="M5.12,15.44a1.52,1.52,0,1,1,1.52-1.52A1.52,1.52,0,0,1,5.12,15.44Zm0-2.23a0.71,0.71,0,1,0,.71.71A0.71,0.71,0,0,0,5.12,13.21Z" transform="translate(3)"/><path class="cls-4" d="M38.07,14.33a1.52,1.52,0,1,1,1.52-1.52A1.52,1.52,0,0,1,38.07,14.33Zm0-2.23a0.71,0.71,0,1,0,.71.71A0.71,0.71,0,0,0,38.07,12.1Z" transform="translate(3)"/><path class="cls-4" d="M38.07,10.26a1.52,1.52,0,1,1,1.52-1.52A1.52,1.52,0,0,1,38.07,10.26Zm0-2.23a0.71,0.71,0,1,0,.71.71A0.71,0.71,0,0,0,38.07,8Z" transform="translate(3)"/><path class="cls-4" d="M38.07,18.39a1.52,1.52,0,1,1,1.52-1.52A1.52,1.52,0,0,1,38.07,18.39Zm0-2.23a0.71,0.71,0,1,0,.71.71A0.71,0.71,0,0,0,38.07,16.16Z" transform="translate(3)"/><path class="cls-4" d="M38.07,22.45a1.52,1.52,0,1,1,1.52-1.52A1.52,1.52,0,0,1,38.07,22.45Zm0-2.23a0.71,0.71,0,1,0,.71.71A0.71,0.71,0,0,0,38.07,20.22Z" transform="translate(3)"/><path class="cls-4" d="M38.07,26.38a1.52,1.52,0,1,1,1.52-1.52A1.52,1.52,0,0,1,38.07,26.38Zm0-2.23a0.71,0.71,0,1,0,.71.71A0.71,0.71,0,0,0,38.07,24.16Z" transform="translate(3)"/><path class="cls-4" d="M8.78,37.79a1.52,1.52,0,1,1,1.52-1.52A1.52,1.52,0,0,1,8.78,37.79Zm0-2.23a0.71,0.71,0,1,0,.71.71A0.71,0.71,0,0,0,8.78,35.57Z" transform="translate(3)"/><path class="cls-4" d="M13.25,37.79a1.52,1.52,0,1,1,1.52-1.52A1.52,1.52,0,0,1,13.25,37.79Zm0-2.23a0.71,0.71,0,1,0,.71.71A0.71,0.71,0,0,0,13.25,35.57Z" transform="translate(3)"/><path class="cls-4" d="M17.31,37.79a1.52,1.52,0,1,1,1.52-1.52A1.52,1.52,0,0,1,17.31,37.79Zm0-2.23a0.71,0.71,0,1,0,.71.71A0.71,0.71,0,0,0,17.31,35.57Z" transform="translate(3)"/><path class="cls-4" d="M21.37,37.79a1.52,1.52,0,1,1,1.52-1.52A1.52,1.52,0,0,1,21.37,37.79Zm0-2.23a0.71,0.71,0,1,0,.71.71A0.71,0.71,0,0,0,21.37,35.57Z" transform="translate(3)"/></g></svg>